inDegrees=yes
name=ik_Xsens_5
DataType=double
version=3
OpenSimVersion=4.4-2022-07-23-0e9fedc
endheader
time	pelvis_tilt	pelvis_list	pelvis_rotation	pelvis_tx	pelvis_ty	pelvis_tz	hip_flexion_r	hip_adduction_r	hip_rotation_r	knee_angle_r	knee_angle_r_beta	ankle_angle_r	subtalar_angle_r	mtp_angle_r	hip_flexion_l	hip_adduction_l	hip_rotation_l	knee_angle_l	knee_angle_l_beta	ankle_angle_l	subtalar_angle_l	mtp_angle_l	lumbar_extension	lumbar_bending	lumbar_rotation	arm_flex_r	arm_add_r	arm_rot_r	elbow_flex_r	pro_sup_r	wrist_flex_r	wrist_dev_r	arm_flex_l	arm_add_l	arm_rot_l	elbow_flex_l	pro_sup_l	wrist_flex_l	wrist_dev_l
38.18333333333333	-1.077613842297402e-34	0	0	0	0.93	0	6.382628845605931e-36	-1.616420763446103e-35	0	0	2.657142531220267e-40	3.877972684578112e-37	0	0	6.382628852480456e-36	-1.616420763446103e-35	0	0	2.657142531220267e-40	3.877972684578112e-37	0	0	-1.077613842297402e-34	0	0	47.6405992597839	-140.6506612554816	30.28792645472038	-12.43383887232921	28.40952558908535	0	1.26225193516313e-36	1.270410844717595e-11	8.198085280390353e-11	2.687176798154485e-11	3.231722644559607e-11	7.488093379934799e-11	0	1.26225193516313e-36
38.2	0	0	0	0	0.93	0	-1.475247970198177e-37	-1.600258156069822e-39	0	0	-1.016277315099381e-40	1.014910884231794e-35	0	0	-1.475247969610127e-37	-1.600258156069822e-39	0	0	-1.016277315099381e-40	1.014910884231794e-35	0	0	0	0	0	47.6433324420539	-140.6748087272587	30.28402045653202	-12.45075311036729	28.40089074138541	0	-1.913507500393627e-37	1.270410844717595e-11	8.198085280390353e-11	2.687176798154485e-11	3.231722644559607e-11	7.488093379934799e-11	0	-1.913507500393627e-37
38.21666666666667	0	0	-2.586273221513716e-34	0	0.93	0	-1.841081912723397e-37	-1.584257158766303e-43	0	1.648556421707108e-53	9.081316545247883e-42	-9.945228241065813e-36	0	0	-1.841081912723537e-37	-1.584257158766303e-43	0	1.648556421707108e-53	9.081316545247883e-42	-9.945228241065813e-36	0	0	0	0	-2.586273221513716e-34	47.64829351155338	-140.6993911610751	30.27861881427042	-12.46920288474656	28.39100731746722	0	-1.894374319764056e-41	1.270410844717595e-11	8.198085280390353e-11	2.687176798154485e-11	3.231722644559607e-11	7.488093379934799e-11	0	-1.894374319764056e-41
38.23333333333333	0	9.967928041250968e-35	0	0	0.93	0	-1.106488240002282e-37	-6.528671470951075e-63	0	0	9.081316545247883e-42	-9.845785804441174e-40	0	0	-1.106488240002282e-37	-6.528671470951075e-63	0	0	9.081316545247883e-42	-9.845785804441174e-40	0	0	0	9.967928041250968e-35	0	47.65246901877099	-140.7255682746355	30.28032803226625	-12.4920825426198	28.38846142045758	0	-1.875432451998879e-45	1.270410844717595e-11	8.198085280390353e-11	2.687176798154485e-11	3.231722644559607e-11	7.488093379934799e-11	0	-1.875432451998879e-45
38.25	0	0	0	0	0.93	0	-5.629608497160526e-36	-2.35946659741643e-82	0	0	-5.02979932868056e-41	-9.747337693734544e-44	0	0	-5.629608497160526e-36	-2.35946659741643e-82	0	0	-5.02979932868056e-41	-9.747337693734544e-44	0	0	0	0	0	47.65558355502359	-140.7498444711719	30.28148055641763	-12.5123397276173	28.38544870654657	0	-1.75390036517204e-37	1.270410844717595e-11	8.198085280390353e-11	2.687176798154485e-11	3.231722644559607e-11	7.488093379934799e-11	0	-1.75390036517204e-37
38.26666666666667	0	0	0	0	0.93	0	-5.288837136667176e-37	4.156775730605233e-36	0	0	0	3.211539513759023e-43	0	0	-5.288837136667176e-37	4.156775730605233e-36	0	0	0	3.211539513759023e-43	0	0	0	0	0	47.66235864601462	-140.771869564954	30.28064479153468	-12.53335526125915	28.38152263651275	0	9.368992108094061e-37	1.270410844717595e-11	8.198085280390353e-11	2.687176798154485e-11	3.231722644559607e-11	7.488093379934799e-11	0	9.368992108094061e-37
38.28333333333333	0	0	0	0	0.93	0	-4.552312540065686e-36	-7.648853718610892e-36	0	0	0	-5.556913974499182e-37	0	0	-4.552312540065686e-36	-7.648853718610892e-36	0	0	0	-5.556913974499182e-37	0	0	0	0	0	47.67053237239871	-140.7917073052321	30.28395052133719	-12.55654228875973	28.38292417128335	0	3.175505879837671e-36	1.270410844717595e-11	8.198085280390353e-11	2.687176798154485e-11	3.231722644559607e-11	7.488093379934799e-11	0	3.175505879837671e-36
38.3	4.309315311482261e-12	-3.120136429079622e-12	-2.886571913558714e-12	0	0.93	0	1.247059098967857e-36	-6.107414302951845e-29	0	1.561507517626264e-07	2.725345419325064e-09	1.951926988562809e-36	0	0	1.247059098967857e-36	-6.107414302951845e-29	0	1.561507517626264e-07	2.725345419325064e-09	1.951926988562809e-36	0	0	4.309315311482264e-12	-3.120136429079608e-12	-2.88657191355872e-12	47.68399727429075	-140.8097778288597	30.28127751397594	-12.58007226091909	28.37927686541207	0	8.551343782509555e-37	1.270410844717595e-11	8.198085280390353e-11	2.687176798154485e-11	3.231722644559607e-11	7.488093379934799e-11	0	8.551343782509555e-37
38.31666666666666	0	-2.149080677593307e-34	0	0	0.93	0	-6.040404943067921e-36	-2.450210200316637e-48	0	0	-8.239022942986915e-41	1.932409651086869e-40	0	0	-6.040404943067921e-36	-2.450210200316637e-48	0	0	-8.239022942986915e-41	1.932409651086869e-40	0	0	0	0	0	47.69885957313225	-140.8283772949724	30.28741771430079	-12.61029266998078	28.38555988450846	0	8.465838810523453e-41	1.270410844717595e-11	8.198085280390353e-11	2.687176798154485e-11	3.231722644559607e-11	7.488093379934799e-11	0	8.465838810523453e-41
